<?xml version="1.0" encoding="UTF-8" standalone="no"?>
<svg
   viewBox="10 65 142.7677 106.80123"
   version="1.1"
   id="svg1"
   sodipodi:docname="logo.svg"
   width="142.7677"
   height="106.80123"
   inkscape:version="1.4.2 (f4327f4, 2025-05-13)"
   xmlns:inkscape="http://www.inkscape.org/namespaces/inkscape"
   xmlns:sodipodi="http://sodipodi.sourceforge.net/DTD/sodipodi-0.dtd"
   xmlns="http://www.w3.org/2000/svg"
   xmlns:svg="http://www.w3.org/2000/svg">
  <defs
     id="defs1" />
  <sodipodi:namedview
     id="namedview1"
     pagecolor="#505050"
     bordercolor="#ffffff"
     borderopacity="1"
     inkscape:showpageshadow="0"
     inkscape:pageopacity="0"
     inkscape:pagecheckerboard="1"
     inkscape:deskcolor="#505050"
     showguides="true"
     inkscape:zoom="6.5635947"
     inkscape:cx="2.8947552"
     inkscape:cy="41.212173"
     inkscape:window-width="1680"
     inkscape:window-height="961"
     inkscape:window-x="-9"
     inkscape:window-y="-9"
     inkscape:window-maximized="1"
     inkscape:current-layer="svg1" />
  <path
     fill="#367c2b"
     d="M 37.966203,65.003017 C 9.5313844,64.644907 -7.4577056,96.245607 38.482801,115.93646 -15.244175,84.821007 39.742724,49.986073 73.519389,82.732277 61.972098,70.176597 49.092873,65.143117 37.966203,65.003017 Z m 62.451387,2.43152 c -9.4171,-0.0526 -18.23408,4.09487 -23.33341,14.74869 23.89937,-30.155411 77.49018,10.06218 49.34715,33.243403 30.64815,-15.600263 0.0217,-47.846893 -26.01374,-47.992093 z m -55.386727,10.67138 c -4.135893,-0.0369 -8.198048,0.61109 -12.000724,2.1367 20.591548,3.74392 33.617051,10.78503 40.341856,18.05923 -0.955961,4.571823 0.05461,9.017443 3.472815,12.073763 a 10.961534,8.0890798 23.976828 0 0 -1.6512,1.7567 10.961534,8.0890798 23.976828 0 0 -0.49902,1.02238 c -4.381085,-2.46428 -9.913159,-2.47573 -15.289633,-0.73568 -8.705555,-3.15233 -19.622474,-11.08375 -30.266872,-28.938883 -5.792337,12.67071 6.477168,26.498443 20.432608,34.286073 -9.87028,7.88766 -15.191017,21.65979 -3.257804,34.49024 2.716059,-19.76167 8.46728,-26.29864 15.025924,-29.52579 6.618272,1.8623 12.549698,1.82061 15.917107,-0.95745 a 10.961534,8.0890798 23.976828 0 0 3.28892,2.44098 10.961534,8.0890798 23.976828 0 0 0.66536,0.31779 c -1.77183,3.58204 -0.61798,7.85624 2.41393,12.07782 -1.65374,6.56348 -8.64221,13.61204 -31.596224,19.23713 14.790404,6.81898 32.542164,-0.20514 40.485194,-10.63079 12.03699,8.79401 30.19957,14.39497 41.08025,7.22964 -20.41293,-3.11382 -31.39544,-9.27696 -37.15302,-15.60203 0.81167,-4.27157 -0.18271,-8.64815 -3.63917,-12.59442 a 10.961534,8.0890798 23.976828 0 0 1.65798,-1.7621 10.961534,8.0890798 23.976828 0 0 0.27047,-0.49089 c 3.98221,1.81108 8.9599,1.73518 13.73712,0.19203 7.98408,1.93797 16.5994,7.08464 28.17751,26.506 4.34068,-11.0325 -6.26984,-24.28126 -18.82466,-31.77609 7.90658,-6.86604 11.51965,-18.506843 0.85062,-31.358233 -1.2306,18.971553 -5.64716,23.911253 -12.6255,26.301813 -5.2536,-1.33774 -10.14247,-1.22684 -13.7101,0.9196 a 10.961534,8.0890798 23.976828 0 0 -3.22669,-2.37475 10.961534,8.0890798 23.976828 0 0 -0.65456,-0.31237 c 2.16744,-3.00317 0.67907,-7.54452 -3.13471,-12.271213 2.21951,-5.80976 9.31617,-11.52856 28.35601,-14.99076 -16.64949,-7.28283 -30.04501,-1.3294 -36.48634,7.2878 -8.649006,-6.54018 -20.686366,-11.91205 -32.157447,-12.01424 z m 68.643787,4.72644 c 8.6e-4,4e-4 8.6e-4,0.001 0.003,0.001 v -0.001 c -8.8e-4,1.5e-4 -8.8e-4,-1.5e-4 -0.003,0 z M 83.56327,113.5712 a 4.9500028,3.5513128 21.613705 0 1 2.47615,0.41923 4.9500028,3.5513128 21.613705 0 1 3.44984,5.08347 4.9500028,3.5513128 21.613705 0 1 -5.82049,1.61336 4.9500028,3.5513128 21.613705 0 1 -3.44985,-5.08348 4.9500028,3.5513128 21.613705 0 1 3.34435,-2.03258 z m 43.51447,4.59934 c 47.08812,25.28623 3.70079,65.9901 -30.5617,34.7012 38.95212,40.10855 86.7066,-11.35329 30.5617,-34.7012 z m -87.986383,1.20224 c -51.125247,27.23404 34.519492,81.2875 53.878833,33.24473 -21.794345,35.82272 -90.2799776,-4.23427 -53.878833,-33.24473 z"
     id="path1"
     clip-path="none" />
</svg>
